<?xml version="1.0" encoding="utf-8"?>
<svg viewBox="0 100 433.288 100" width="433.288" height="100" xmlns="http://www.w3.org/2000/svg">
  <g transform="matrix(5.5555548667907715, 0, 0, 4.999999046325684, -16.666650772094723, 90)" style="">
    <defs/>
    <g/>
    <g>
      <path d="M19,4h-1V2h-2v2H8V2H6v2H5C3.89,4,3.01,4.9,3.01,6L3,20c0,1.1,0.89,2,2,2h14c1.1,0,2-0.9,2-2V6C21,4.9,20.1,4,19,4z M19,20 H5V10h14V20z M9,14H7v-2h2V14z M13,14h-2v-2h2V14z M17,14h-2v-2h2V14z M9,18H7v-2h2V18z M13,18h-2v-2h2V18z M17,18h-2v-2h2V18z" style="fill: rgb(203, 203, 203);"/>
    </g>
  </g>
  <text style="fill: rgb(203, 203, 203); font-family: Dubai; font-size: 28px; white-space: pre;" transform="matrix(2.885666847229004, 0, 0, 3.176470994949341, -335.99884033203125, 90.2844009399414)"><tspan x="166.255" y="28.43">R.O.A.D</tspan><tspan x="166.255" dy="1em">​</tspan></text>
</svg>